# xmcd
#
# Track frame offsets: 
#        150
#        16434
#        26011
#        66998
#        73233
#        94076
#        119248
#        130370
#        143256
#        168130
#        189652
#        199980
#
# Disc length: 2810 seconds
#
# Revision: 0
# Processed by: cddbd v1.5.1PL2 Copyright (c) Steve Scherf et al.
# Submitted via: ExactAudioCopy v0.95a5
#
DISCID=b40af80c
DTITLE=Phil Keaggy - Jammed!
DYEAR=2006
DGENRE=Instrumental
TTITLE0=Route Canal
TTITLE1=Phlagan's Flow
TTITLE2=Kegworth Speaks
TTITLE3=Blueberry Jam
TTITLE4=Zee Blues
TTITLE5=Sherlock Ohms
TTITLE6=Elect Rick
TTITLE7=Joyphil
TTITLE8=Revisited Jelly
TTITLE9=Watt Ever
TTITLE10=Prehistrobie K-18
TTITLE11=Kegworth Reconsiders
EXTD=
EXTT0=
EXTT1=
EXTT2=
EXTT3=
EXTT4=
EXTT5=
EXTT6=
EXTT7=
EXTT8=
EXTT9=
EXTT10=
EXTT11=
PLAYORDER=
